<svg width="8" height="8" viewBox="0 0 8 8" fill="none" xmlns="http://www.w3.org/2000/svg">
<g clip-path="url(#clip0_67_72)">
<path fill-rule="evenodd" clip-rule="evenodd" d="M4.00041 0C1.79369 0 0 1.79288 0 4.00041C0 6.20712 1.79369 8.00081 4.00041 8.00081C6.20794 8.00081 8.00081 6.20712 8.00081 4.00041C8.00081 1.79288 6.20794 0 4.00041 0ZM4.00041 0.363641C6.01149 0.363641 7.63714 1.98929 7.63714 4.00037C7.63714 6.01048 6.01149 7.63711 4.00041 7.63711C1.9903 7.63711 0.363673 6.01048 0.363673 4.00037C0.363673 1.98929 1.9903 0.363641 4.00041 0.363641Z" fill="black"/>
<path fill-rule="evenodd" clip-rule="evenodd" d="M2.61516 2.45394C2.54439 2.46085 2.48414 2.50835 2.46093 2.57558C2.43765 2.6428 2.45579 2.71738 2.50722 2.76647L3.74029 4.0024L2.50722 5.23546C2.43581 5.30687 2.43581 5.4226 2.50722 5.49402C2.57863 5.56543 2.69437 5.56543 2.76579 5.49402L4.00171 4.2581L5.23477 5.49402C5.30618 5.56543 5.42192 5.56543 5.49327 5.49402C5.56468 5.42261 5.56468 5.30688 5.49334 5.23546L4.25742 4.0024L5.49334 2.76647C5.54756 2.71409 5.56386 2.63361 5.53424 2.56423C5.50456 2.49485 5.43518 2.45096 5.35978 2.45394C5.31266 2.45508 5.26788 2.47443 5.23478 2.50798L4.00171 3.74104L2.76579 2.50798C2.73129 2.47303 2.68411 2.45356 2.63508 2.45394C2.62843 2.45363 2.62182 2.45362 2.61516 2.45394Z" fill="black"/>
</g>
<defs>
<clipPath id="clip0_67_72">
<rect width="8" height="8" fill="white"/>
</clipPath>
</defs>
</svg>
