<svg width="8" height="8" viewBox="0 0 8 8" fill="current" xmlns="http://www.w3.org/2000/svg">
<g clip-path="url(#clip0_67_7)">
<path d="M4.39058 2.36155C4.39058 2.57938 4.21402 2.75601 3.99619 2.75601C3.77836 2.75601 3.60181 2.57938 3.60181 2.36155C3.60181 2.1438 3.77836 1.96716 3.99619 1.96716C4.21402 1.96716 4.39058 2.1438 4.39058 2.36155Z" fill="current"/>
<path d="M3.99653 0.399568C5.97966 0.399568 7.59306 2.01303 7.59306 3.9961C7.59306 5.97918 5.9796 7.59284 3.99653 7.59284C2.01345 7.59284 0.399792 5.97946 0.399792 3.9963C0.399792 2.01303 2.01333 0.399568 3.99653 0.399568ZM3.99653 0C1.78947 0 0.000244141 1.78915 0.000244141 3.99628C0.000244141 6.20334 1.78939 7.99257 3.99653 7.99257C6.20358 7.99257 7.99281 6.20342 7.99281 3.99628C7.99281 1.78923 6.2035 0 3.99653 0Z" fill="current"/>
<path d="M3.71655 3.29382H4.27596V6.02557H3.71655V3.29382Z" fill="current"/>
</g>
<defs>
<clipPath id="clip0_67_7">
<rect width="8" height="8" fill="white"/>
</clipPath>
</defs>
</svg>
